<svg xmlns="http://www.w3.org/2000/svg" version="1.1" xmlns:xlink="http://www.w3.org/1999/xlink" xmlns:svgjs="http://svgjs.dev/svgjs" viewBox="0 0 800 800"><defs><linearGradient x1="50%" y1="0%" x2="50%" y2="100%" id="cccoil-grad"><stop stop-color="hsl(206, 75%, 49%)" stop-opacity="1" offset="0%"></stop><stop stop-color="hsl(331, 90%, 56%)" stop-opacity="1" offset="100%"></stop></linearGradient></defs><g stroke="url(#cccoil-grad)" fill="none" stroke-linecap="round"><circle r="368" cx="400" cy="400" stroke-width="9.5" stroke-dasharray="1827 2312" transform="rotate(360, 400, 400)"></circle><circle r="352" cx="400" cy="400" stroke-width="9.5" stroke-dasharray="1668 2212" transform="rotate(344, 400, 400)"></circle><circle r="336" cx="400" cy="400" stroke-width="9.5" stroke-dasharray="1516 2111" transform="rotate(327, 400, 400)"></circle><circle r="320" cx="400" cy="400" stroke-width="9.5" stroke-dasharray="1372 2011" transform="rotate(311, 400, 400)"></circle><circle r="304" cx="400" cy="400" stroke-width="9.5" stroke-dasharray="1235 1910" transform="rotate(295, 400, 400)"></circle><circle r="288" cx="400" cy="400" stroke-width="9.5" stroke-dasharray="1105 1810" transform="rotate(278, 400, 400)"></circle><circle r="272" cx="400" cy="400" stroke-width="9.5" stroke-dasharray="982 1709" transform="rotate(262, 400, 400)"></circle><circle r="256" cx="400" cy="400" stroke-width="9.5" stroke-dasharray="866 1608" transform="rotate(245, 400, 400)"></circle><circle r="240" cx="400" cy="400" stroke-width="9.5" stroke-dasharray="758 1508" transform="rotate(229, 400, 400)"></circle><circle r="224" cx="400" cy="400" stroke-width="9.5" stroke-dasharray="657 1407" transform="rotate(213, 400, 400)"></circle><circle r="208" cx="400" cy="400" stroke-width="9.5" stroke-dasharray="563 1307" transform="rotate(196, 400, 400)"></circle><circle r="192" cx="400" cy="400" stroke-width="9.5" stroke-dasharray="477 1206" transform="rotate(180, 400, 400)"></circle><circle r="176" cx="400" cy="400" stroke-width="9.5" stroke-dasharray="397 1106" transform="rotate(164, 400, 400)"></circle><circle r="160" cx="400" cy="400" stroke-width="9.5" stroke-dasharray="325 1005" transform="rotate(147, 400, 400)"></circle><circle r="144" cx="400" cy="400" stroke-width="9.5" stroke-dasharray="260 905" transform="rotate(131, 400, 400)"></circle><circle r="128" cx="400" cy="400" stroke-width="9.5" stroke-dasharray="202 804" transform="rotate(115, 400, 400)"></circle><circle r="112" cx="400" cy="400" stroke-width="9.5" stroke-dasharray="152 704" transform="rotate(98, 400, 400)"></circle><circle r="96" cx="400" cy="400" stroke-width="9.5" stroke-dasharray="108 603" transform="rotate(82, 400, 400)"></circle><circle r="80" cx="400" cy="400" stroke-width="9.5" stroke-dasharray="72 503" transform="rotate(65, 400, 400)"></circle><circle r="64" cx="400" cy="400" stroke-width="9.5" stroke-dasharray="43 402" transform="rotate(49, 400, 400)"></circle><circle r="48" cx="400" cy="400" stroke-width="9.5" stroke-dasharray="22 302" transform="rotate(33, 400, 400)"></circle><circle r="32" cx="400" cy="400" stroke-width="9.5" stroke-dasharray="7 201" transform="rotate(16, 400, 400)"></circle><circle r="16" cx="400" cy="400" stroke-width="9.5" stroke-dasharray="0 101"></circle></g></svg>